<mxfile host="app.diagrams.net" modified="2023-11-21T12:26:23.392Z" agent="Mozilla/5.0 (Windows NT 10.0; Win64; x64) AppleWebKit/537.36 (KHTML, like Gecko) Chrome/119.0.0.0 Safari/537.36" etag="n29GUsgUO4oPr6vvEQAm" version="22.1.3" type="github">
  <diagram name="Page-1" id="74e2e168-ea6b-b213-b513-2b3c1d86103e">
    <mxGraphModel dx="1674" dy="758" grid="1" gridSize="10" guides="1" tooltips="1" connect="1" arrows="1" fold="1" page="1" pageScale="1" pageWidth="1100" pageHeight="850" background="none" math="0" shadow="0">
      <root>
        <mxCell id="0" />
        <mxCell id="1" parent="0" />
        <mxCell id="77e6c97f196da883-1" value="Pool" style="swimlane;html=1;childLayout=stackLayout;startSize=20;rounded=0;shadow=0;labelBackgroundColor=none;strokeWidth=1;fontFamily=Verdana;fontSize=8;align=center;" parent="1" vertex="1">
          <mxGeometry x="70" y="40" width="640" height="450" as="geometry" />
        </mxCell>
        <mxCell id="77e6c97f196da883-2" value="客户服务部" style="swimlane;html=1;startSize=20;" parent="77e6c97f196da883-1" vertex="1">
          <mxGeometry y="20" width="160" height="430" as="geometry" />
        </mxCell>
        <mxCell id="ttLIyI4i8V6fU7e4W6Vp-4" style="edgeStyle=orthogonalEdgeStyle;rounded=0;orthogonalLoop=1;jettySize=auto;html=1;exitX=0.5;exitY=1;exitDx=0;exitDy=0;entryX=0.5;entryY=0;entryDx=0;entryDy=0;" edge="1" parent="77e6c97f196da883-2" source="77e6c97f196da883-8" target="ttLIyI4i8V6fU7e4W6Vp-2">
          <mxGeometry relative="1" as="geometry" />
        </mxCell>
        <mxCell id="77e6c97f196da883-8" value="&lt;font style=&quot;font-size: 12px;&quot;&gt;处理客户签发请求&lt;/font&gt;" style="rounded=1;whiteSpace=wrap;html=1;shadow=0;labelBackgroundColor=none;strokeWidth=1;fontFamily=Verdana;fontSize=8;align=center;" parent="77e6c97f196da883-2" vertex="1">
          <mxGeometry x="30" y="30" width="100" height="60" as="geometry" />
        </mxCell>
        <mxCell id="ttLIyI4i8V6fU7e4W6Vp-13" style="edgeStyle=orthogonalEdgeStyle;rounded=0;orthogonalLoop=1;jettySize=auto;html=1;exitX=0.5;exitY=1;exitDx=0;exitDy=0;entryX=0.5;entryY=0;entryDx=0;entryDy=0;" edge="1" parent="77e6c97f196da883-2" source="ttLIyI4i8V6fU7e4W6Vp-2" target="ttLIyI4i8V6fU7e4W6Vp-12">
          <mxGeometry relative="1" as="geometry" />
        </mxCell>
        <mxCell id="ttLIyI4i8V6fU7e4W6Vp-2" value="&lt;font style=&quot;font-size: 12px;&quot;&gt;必要文件准备&lt;/font&gt;" style="rounded=1;whiteSpace=wrap;html=1;shadow=0;labelBackgroundColor=none;strokeWidth=1;fontFamily=Verdana;fontSize=8;align=center;" vertex="1" parent="77e6c97f196da883-2">
          <mxGeometry x="30" y="110" width="100" height="60" as="geometry" />
        </mxCell>
        <mxCell id="ttLIyI4i8V6fU7e4W6Vp-12" value="&lt;font style=&quot;font-size: 12px;&quot;&gt;费用检查&lt;/font&gt;" style="rounded=1;whiteSpace=wrap;html=1;shadow=0;labelBackgroundColor=none;strokeWidth=1;fontFamily=Verdana;fontSize=8;align=center;" vertex="1" parent="77e6c97f196da883-2">
          <mxGeometry x="30" y="190" width="100" height="60" as="geometry" />
        </mxCell>
        <mxCell id="ttLIyI4i8V6fU7e4W6Vp-19" value="&lt;font style=&quot;font-size: 12px;&quot;&gt;提货&lt;/font&gt;" style="rounded=1;whiteSpace=wrap;html=1;shadow=0;labelBackgroundColor=none;strokeWidth=1;fontFamily=Verdana;fontSize=8;align=center;" vertex="1" parent="77e6c97f196da883-2">
          <mxGeometry x="30" y="350" width="100" height="60" as="geometry" />
        </mxCell>
        <mxCell id="77e6c97f196da883-4" value="财务部" style="swimlane;html=1;startSize=20;" parent="77e6c97f196da883-1" vertex="1">
          <mxGeometry x="160" y="20" width="160" height="430" as="geometry" />
        </mxCell>
        <mxCell id="ttLIyI4i8V6fU7e4W6Vp-11" style="edgeStyle=orthogonalEdgeStyle;rounded=0;orthogonalLoop=1;jettySize=auto;html=1;exitX=0.5;exitY=1;exitDx=0;exitDy=0;entryX=0.5;entryY=0;entryDx=0;entryDy=0;" edge="1" parent="77e6c97f196da883-4" source="ttLIyI4i8V6fU7e4W6Vp-9" target="ttLIyI4i8V6fU7e4W6Vp-10">
          <mxGeometry relative="1" as="geometry" />
        </mxCell>
        <mxCell id="ttLIyI4i8V6fU7e4W6Vp-9" value="&lt;font style=&quot;font-size: 12px;&quot;&gt;处理客户签发请求&lt;/font&gt;" style="rounded=1;whiteSpace=wrap;html=1;shadow=0;labelBackgroundColor=none;strokeWidth=1;fontFamily=Verdana;fontSize=8;align=center;" vertex="1" parent="77e6c97f196da883-4">
          <mxGeometry x="30" y="30" width="100" height="60" as="geometry" />
        </mxCell>
        <mxCell id="ttLIyI4i8V6fU7e4W6Vp-10" value="&lt;font style=&quot;font-size: 12px;&quot;&gt;费用跟进并更新到区块链平台&lt;/font&gt;" style="rounded=1;whiteSpace=wrap;html=1;shadow=0;labelBackgroundColor=none;strokeWidth=1;fontFamily=Verdana;fontSize=8;align=center;" vertex="1" parent="77e6c97f196da883-4">
          <mxGeometry x="30" y="110" width="100" height="60" as="geometry" />
        </mxCell>
        <mxCell id="77e6c97f196da883-5" value="运营部" style="swimlane;html=1;startSize=20;" parent="77e6c97f196da883-1" vertex="1">
          <mxGeometry x="320" y="20" width="160" height="430" as="geometry" />
        </mxCell>
        <mxCell id="ttLIyI4i8V6fU7e4W6Vp-18" value="&lt;font style=&quot;font-size: 12px;&quot;&gt;释放货物&lt;/font&gt;" style="rounded=1;whiteSpace=wrap;html=1;shadow=0;labelBackgroundColor=none;strokeWidth=1;fontFamily=Verdana;fontSize=8;align=center;" vertex="1" parent="77e6c97f196da883-5">
          <mxGeometry x="30" y="350" width="100" height="60" as="geometry" />
        </mxCell>
        <mxCell id="77e6c97f196da883-6" value="提单办事处总部" style="swimlane;html=1;startSize=20;" parent="77e6c97f196da883-1" vertex="1">
          <mxGeometry x="480" y="20" width="160" height="430" as="geometry" />
        </mxCell>
        <mxCell id="ttLIyI4i8V6fU7e4W6Vp-15" value="&lt;font style=&quot;font-size: 12px;&quot;&gt;提单签发&lt;/font&gt;" style="rounded=1;whiteSpace=wrap;html=1;shadow=0;labelBackgroundColor=none;strokeWidth=1;fontFamily=Verdana;fontSize=8;align=center;" vertex="1" parent="77e6c97f196da883-6">
          <mxGeometry x="30" y="250" width="100" height="60" as="geometry" />
        </mxCell>
        <mxCell id="ttLIyI4i8V6fU7e4W6Vp-14" style="edgeStyle=orthogonalEdgeStyle;rounded=0;orthogonalLoop=1;jettySize=auto;html=1;exitX=0.5;exitY=1;exitDx=0;exitDy=0;entryX=1;entryY=0.5;entryDx=0;entryDy=0;" edge="1" parent="77e6c97f196da883-1" source="ttLIyI4i8V6fU7e4W6Vp-10" target="ttLIyI4i8V6fU7e4W6Vp-12">
          <mxGeometry relative="1" as="geometry" />
        </mxCell>
        <mxCell id="ttLIyI4i8V6fU7e4W6Vp-21" style="edgeStyle=orthogonalEdgeStyle;rounded=0;orthogonalLoop=1;jettySize=auto;html=1;exitX=1;exitY=0.5;exitDx=0;exitDy=0;" edge="1" parent="77e6c97f196da883-1" source="ttLIyI4i8V6fU7e4W6Vp-19" target="ttLIyI4i8V6fU7e4W6Vp-18">
          <mxGeometry relative="1" as="geometry" />
        </mxCell>
        <mxCell id="ttLIyI4i8V6fU7e4W6Vp-27" style="edgeStyle=orthogonalEdgeStyle;rounded=0;orthogonalLoop=1;jettySize=auto;html=1;exitX=0.5;exitY=1;exitDx=0;exitDy=0;entryX=0.5;entryY=0;entryDx=0;entryDy=0;" edge="1" parent="77e6c97f196da883-1" source="ttLIyI4i8V6fU7e4W6Vp-15" target="ttLIyI4i8V6fU7e4W6Vp-19">
          <mxGeometry relative="1" as="geometry">
            <Array as="points">
              <mxPoint x="80" y="350" />
            </Array>
          </mxGeometry>
        </mxCell>
        <mxCell id="ttLIyI4i8V6fU7e4W6Vp-28" style="edgeStyle=orthogonalEdgeStyle;rounded=0;orthogonalLoop=1;jettySize=auto;html=1;exitX=0.5;exitY=1;exitDx=0;exitDy=0;entryX=0;entryY=0.5;entryDx=0;entryDy=0;" edge="1" parent="77e6c97f196da883-1" source="ttLIyI4i8V6fU7e4W6Vp-12" target="ttLIyI4i8V6fU7e4W6Vp-15">
          <mxGeometry relative="1" as="geometry" />
        </mxCell>
        <mxCell id="ttLIyI4i8V6fU7e4W6Vp-22" value="提&lt;br&gt;单&lt;br&gt;签&lt;br&gt;发" style="rounded=0;whiteSpace=wrap;html=1;" vertex="1" parent="1">
          <mxGeometry x="30" y="80" width="40" height="320" as="geometry" />
        </mxCell>
        <mxCell id="ttLIyI4i8V6fU7e4W6Vp-26" value="提&lt;br&gt;单&lt;br&gt;提&lt;br&gt;货" style="rounded=0;whiteSpace=wrap;html=1;" vertex="1" parent="1">
          <mxGeometry x="30" y="400" width="40" height="90" as="geometry" />
        </mxCell>
      </root>
    </mxGraphModel>
  </diagram>
</mxfile>
